<?xml version="1.0" encoding="utf-8"?>
<!-- Generator: Adobe Illustrator 16.0.0, SVG Export Plug-In . SVG Version: 6.00 Build 0)  -->
<!DOCTYPE svg PUBLIC "-//W3C//DTD SVG 1.1//EN" "http://www.w3.org/Graphics/SVG/1.1/DTD/svg11.dtd">
<svg version="1.1" id="Layer_1" xmlns="http://www.w3.org/2000/svg" xmlns:xlink="http://www.w3.org/1999/xlink" x="0px" y="0px"
	 width="430px" height="413.75px" viewBox="0 0 430 413.75" enable-background="new 0 0 430 413.75" xml:space="preserve">
<g>
	<g>
		<path fill="#538C53" d="M213.071,402.448c-56.262-11.669-107.52-42.623-144.331-87.158C31.183,269.853,10.5,212.308,10.5,153.257
			c0-47.243,13.051-93.375,37.741-133.408l4.321-7.006l7.55,3.28c24.108,10.473,49.785,15.783,76.316,15.783
			c25.96,0,51.147-5.102,74.861-15.163l3.71-1.574l3.71,1.574c23.714,10.061,48.901,15.163,74.86,15.163
			c26.53,0,52.207-5.31,76.317-15.783l7.55-3.279l4.321,7.006c24.69,40.033,37.741,86.165,37.741,133.408
			c0,59.051-20.684,116.596-58.24,162.033c-36.811,44.535-88.068,75.489-144.331,87.158l-1.929,0.4L213.071,402.448z"/>
		<path fill="#538C53" d="M373.673,24.836C397.452,63.392,410,107.698,410,153.257c0,56.848-19.91,112.242-56.062,155.98
			c-35.462,42.903-84.773,72.675-138.938,83.909c-54.165-11.234-103.476-41.006-138.938-83.909C39.91,265.499,20,210.104,20,153.257
			c0-45.559,12.548-89.865,36.327-128.421c25.315,10.997,52.242,16.569,80.101,16.569c27.251,0,53.673-5.354,78.572-15.917
			c24.898,10.563,51.319,15.917,78.57,15.917C321.431,41.405,348.357,35.832,373.673,24.836 M48.797,0.85l-8.642,14.012
			C14.54,56.396,1,104.251,1,153.257c0,61.255,21.457,120.949,60.417,168.085c38.183,46.195,91.356,78.303,149.724,90.408
			l3.859,0.801l3.859-0.801c58.369-12.106,111.542-44.214,149.723-90.408C407.543,274.206,429,214.512,429,153.257
			c0-49.005-13.54-96.861-39.155-138.395L381.203,0.85l-15.1,6.559c-22.909,9.951-47.313,14.997-72.533,14.997
			c-24.677,0-48.615-4.848-71.149-14.408L215,4.849l-7.421,3.148c-22.534,9.56-46.473,14.408-71.151,14.408
			c-25.221,0-49.624-5.045-72.531-14.996L48.797,0.85L48.797,0.85z"/>
	</g>
	<path fill="#FFFFFF" d="M215,30.908c24.945,10.285,51.357,15.497,78.57,15.497c27.077,0,53.294-5.137,78.061-15.281
		C393.487,68.021,405,110.063,405,153.257c0,28.401-4.909,56.193-14.592,82.605c-9.356,25.522-22.924,49.138-40.324,70.189
		c-34.519,41.762-82.429,70.821-135.084,81.986c-52.656-11.165-100.565-40.225-135.084-81.986
		c-17.4-21.052-30.967-44.667-40.324-70.189C29.91,209.45,25,181.658,25,153.257c0-43.193,11.512-85.235,33.368-122.133
		c24.768,10.145,50.984,15.281,78.06,15.281C163.643,46.405,190.055,41.193,215,30.908 M375.594,18.499
		c-24.963,11.489-52.742,17.906-82.023,17.906c-27.938,0-54.508-5.848-78.57-16.36c-24.062,10.513-50.632,16.36-78.572,16.36
		c-29.281,0-57.06-6.417-82.022-17.905C29.469,57.388,15,103.63,15,153.257c0,120.947,85.889,221.83,200,244.994
		c114.111-23.164,200-124.047,200-244.994C415,103.63,400.531,57.388,375.594,18.499L375.594,18.499z"/>
	<g>
		<path fill="#FFFFFF" d="M123.522,217.451c-1.389,0.348-2.778,0.638-4.167,0.868c-1.389,0.232-2.837,0.348-4.34,0.348
			c-5.789,0-11.054-1.042-15.798-3.126c-4.747-2.082-8.797-4.917-12.153-8.507c-3.358-3.585-5.962-7.839-7.812-12.761
			c-1.853-4.917-2.778-10.155-2.778-15.711c0-6.363,1.185-12.123,3.559-17.275c2.371-5.147,5.613-9.576,9.723-13.281
			c4.107-3.703,8.94-6.567,14.496-8.594c5.556-2.024,11.573-3.038,18.056-3.038c6.364,0,12.354,1.014,17.969,3.038
			c5.612,2.027,10.474,4.891,14.583,8.594c4.107,3.705,7.349,8.133,9.722,13.281c2.371,5.152,3.559,10.912,3.559,17.275
			c0,4.399-0.407,8.421-1.215,12.066c-0.811,3.645-1.883,7.09-3.212,10.33c-1.332,3.242-2.895,6.337-4.688,9.289
			c-1.795,2.951-3.675,5.989-5.642,9.114l-26.91,42.014H94.703L123.522,217.451z M102.515,179.605
			c0,5.554,1.822,10.155,5.469,13.801c3.646,3.646,8.42,5.469,14.323,5.469c5.902,0,10.677-1.823,14.323-5.469
			c3.646-3.646,5.468-8.247,5.468-13.801c0-5.557-1.823-10.157-5.468-13.803c-3.646-3.646-8.421-5.468-14.323-5.468
			c-5.903,0-10.677,1.822-14.323,5.468C104.337,169.448,102.515,174.048,102.515,179.605z"/>
		<path fill="#FFFFFF" d="M218.14,167.625l-24.653,21.701l-14.757-17.014l40.104-33.854h24.305v122.917H218.14V167.625z"/>
		<path fill="#FFFFFF" d="M267.339,233.771l47.744-42.881c2.43-2.197,4.859-4.688,7.293-7.467c2.43-2.777,3.643-6.015,3.643-9.722
			c0-4.167-1.504-7.436-4.512-9.81c-3.01-2.37-6.541-3.558-10.59-3.558c-4.863,0-8.654,1.505-11.373,4.514
			c-2.719,3.011-4.252,6.714-4.6,11.111l-26.043-1.91c0.35-6.363,1.678-11.893,3.994-16.579c2.312-4.688,5.381-8.595,9.201-11.719
			c3.82-3.126,8.303-5.47,13.455-7.033c5.15-1.562,10.732-2.343,16.752-2.343c5.557,0,10.766,0.781,15.625,2.343
			c4.863,1.563,9.086,3.879,12.676,6.944c3.586,3.069,6.393,6.917,8.418,11.546c2.025,4.63,3.039,10.013,3.039,16.146
			c0,3.936-0.408,7.495-1.215,10.677c-0.811,3.185-1.939,6.076-3.387,8.68c-1.447,2.604-3.152,5.007-5.119,7.205
			c-1.971,2.201-4.109,4.34-6.424,6.425l-37.328,32.118h54.514v22.916h-85.764V233.771z"/>
	</g>
	<rect x="26.212" y="96.635" fill="#FFFFFF" width="378" height="10"/>
</g>
</svg>
